<svg width="559" height="71" viewBox="0 0 559 71" fill="none" xmlns="http://www.w3.org/2000/svg">
<g style="mix-blend-mode:darken" filter="url(#filter0_d_10920_122)">
<path d="M4.5 31.5C4.5 14.103 18.603 0 36 0H279.5H523C540.397 0 554.5 14.103 554.5 31.5V31.5C554.5 48.897 540.397 63 523 63H36C18.603 63 4.5 48.897 4.5 31.5V31.5Z" fill="#D9D9D9" fill-opacity="0.52" shape-rendering="crispEdges"/>
<path d="M36 0.5H279.5H523C540.121 0.5 554 14.3792 554 31.5C554 48.6208 540.121 62.5 523 62.5H36C18.8792 62.5 5 48.6208 5 31.5C5 14.3792 18.8792 0.5 36 0.5Z" stroke="black" shape-rendering="crispEdges"/>
</g>
<defs>
<filter id="filter0_d_10920_122" x="0.5" y="0" width="558" height="71" filterUnits="userSpaceOnUse" color-interpolation-filters="sRGB">
<feFlood flood-opacity="0" result="BackgroundImageFix"/>
<feColorMatrix in="SourceAlpha" type="matrix" values="0 0 0 0 0 0 0 0 0 0 0 0 0 0 0 0 0 0 127 0" result="hardAlpha"/>
<feOffset dy="4"/>
<feGaussianBlur stdDeviation="2"/>
<feComposite in2="hardAlpha" operator="out"/>
<feColorMatrix type="matrix" values="0 0 0 0 0 0 0 0 0 0 0 0 0 0 0 0 0 0 0.25 0"/>
<feBlend mode="normal" in2="BackgroundImageFix" result="effect1_dropShadow_10920_122"/>
<feBlend mode="normal" in="SourceGraphic" in2="effect1_dropShadow_10920_122" result="shape"/>
</filter>
</defs>
</svg>
