<svg width="532" height="71" viewBox="0 0 532 71" fill="none" xmlns="http://www.w3.org/2000/svg">
<g style="mix-blend-mode:darken" filter="url(#filter0_d_10904_49)">
<path d="M4 31.5C4 14.103 18.103 0 35.5 0H496.5C513.897 0 528 14.103 528 31.5V31.5C528 48.897 513.897 63 496.5 63H35.5C18.103 63 4 48.897 4 31.5V31.5Z" fill="white"/>
<path d="M35.5 0.5H496.5C513.621 0.5 527.5 14.3792 527.5 31.5C527.5 48.6208 513.621 62.5 496.5 62.5H35.5C18.3792 62.5 4.5 48.6208 4.5 31.5C4.5 14.3792 18.3792 0.5 35.5 0.5Z" stroke="black"/>
</g>
<defs>
<filter id="filter0_d_10904_49" x="0" y="0" width="532" height="71" filterUnits="userSpaceOnUse" color-interpolation-filters="sRGB">
<feFlood flood-opacity="0" result="BackgroundImageFix"/>
<feColorMatrix in="SourceAlpha" type="matrix" values="0 0 0 0 0 0 0 0 0 0 0 0 0 0 0 0 0 0 127 0" result="hardAlpha"/>
<feOffset dy="4"/>
<feGaussianBlur stdDeviation="2"/>
<feComposite in2="hardAlpha" operator="out"/>
<feColorMatrix type="matrix" values="0 0 0 0 0 0 0 0 0 0 0 0 0 0 0 0 0 0 0.25 0"/>
<feBlend mode="normal" in2="BackgroundImageFix" result="effect1_dropShadow_10904_49"/>
<feBlend mode="normal" in="SourceGraphic" in2="effect1_dropShadow_10904_49" result="shape"/>
</filter>
</defs>
</svg>
