<svg width="124" height="38" viewBox="0 0 124 38" fill="none" xmlns="http://www.w3.org/2000/svg">
<g style="mix-blend-mode:darken" filter="url(#filter0_d_10926_143)">
<path d="M4 15C4 6.71573 10.7157 0 19 0H62H105C113.284 0 120 6.71573 120 15V15C120 23.2843 113.284 30 105 30H19C10.7157 30 4 23.2843 4 15V15Z" fill="#D9D9D9" fill-opacity="0.52" shape-rendering="crispEdges"/>
<path d="M19 0.5H62H105C113.008 0.5 119.5 6.99187 119.5 15C119.5 23.0081 113.008 29.5 105 29.5H19C10.9919 29.5 4.5 23.0081 4.5 15C4.5 6.99187 10.9919 0.5 19 0.5Z" stroke="black" shape-rendering="crispEdges"/>
</g>
<defs>
<filter id="filter0_d_10926_143" x="0" y="0" width="124" height="38" filterUnits="userSpaceOnUse" color-interpolation-filters="sRGB">
<feFlood flood-opacity="0" result="BackgroundImageFix"/>
<feColorMatrix in="SourceAlpha" type="matrix" values="0 0 0 0 0 0 0 0 0 0 0 0 0 0 0 0 0 0 127 0" result="hardAlpha"/>
<feOffset dy="4"/>
<feGaussianBlur stdDeviation="2"/>
<feComposite in2="hardAlpha" operator="out"/>
<feColorMatrix type="matrix" values="0 0 0 0 0 0 0 0 0 0 0 0 0 0 0 0 0 0 0.25 0"/>
<feBlend mode="normal" in2="BackgroundImageFix" result="effect1_dropShadow_10926_143"/>
<feBlend mode="normal" in="SourceGraphic" in2="effect1_dropShadow_10926_143" result="shape"/>
</filter>
</defs>
</svg>
